<svg xmlns="http://www.w3.org/2000/svg" viewBox="0 0 449 350">
    <style type="text/css">  	
      /*Animations*/
      @keyframes pulsestroke {
        from {
          stroke-width: 1px;
          fill: #e6d4a5;
          animation-timing-function: ease-in-out;
        }

        to {
          stroke-width: 1px;
          fill: #e6c15c;
        }
      }

      /* SELECTED amenities (areas icons) */
      [data-amenity-id].selected > .area-shape-public,
      [data-amenity-id].selected > .icon > .icon-bg,
      [data-location-id].selected {             
        fill: #e6c15c;
      }


      .master-wall{fill:#00253b;stroke:#105f6d;stroke-linecap:round;stroke-linejoin:round;stroke-width:2px;}                                  
      .map-floorplan {stroke: rgba(0, 181, 197, 1); fill:none; stroke-linecap:round;stroke-linejoin:round;}
      .wall-divider { stroke: #105f6d; stroke-dasharray:10 20; fill:none; stroke-linecap:round;stroke-linejoin:round; }            
      .area-shape-public{fill:#ccdfe2;}
      .area-shape-public.aud{fill:#6590a5;}
      .area-disabled{fill:#6590a5;}            

      .text-label{fill:#fff; font: 10px sans-serif; letter-spacing: 1px; text-shadow: 1px 1px 5px #222;}
      .text-label.search-result {
        font: italic bold 15px sans-serif;        
        fill: #ffbf0f;
        text-shadow: none;
      }
      .text-label.search-result.dark {
        fill: #333; text-shadow: none;
      }

      /*ICONS*/                  
      .icon-border {fill:none;stroke-width:0.75px;stroke:#000;} 
      .icon-bg{fill:#fff;}
      .icon-bg.water{fill:#dbdbdb;} /* #a7e8e8 */     
      .icon-bg.donations{fill:#dbdbdb;} /* #a7eaaa */       
      .glyph-staircase{fill:#616266;}
    </style>

  <!--  Outermost border-->
  <g id="MasterWall">
    <path class="master-wall" d="M405,291 H171 L46,291 V59 h359 V291z"/>
  </g>

  <!-- DISABLED AREAS -->    
  <g id="disabled">
    <!--Wall anchors-->
    <rect class="area-disabled" x="245" y="60" width="30" height="18"/>
    <rect class="area-disabled" x="175" y="60" width="30" height="18"/>
    <rect class="area-disabled" x="170" y="207" width="109" height="21"/>
    
    <!--Hidden rooms-->
    <polygon class="area-disabled" points="319,229 404,229 404,290 319,269"/>
    <polygon class="area-disabled" points="132,229 47,229 47,290 132,269"/>
  </g>


  <!-- No access areas -->
  <g id="map-areas-noaccess">
    <!--Staircase L-->
    <polygon class="area-shape-public" points="47,112 47,177 86,177 86,161 111.5,161 111.5,112 	"/>
    <!--Staircase L2-->
    <path class="area-shape-public" d="M170,214v45l-38,10v-55H170z"/>


    <!--Staircase R-->
    <polygon class="area-shape-public" points="325.4,160 364,160 364,176.7 404,176.7 404,112 404,106 325.4,106 	"/>
    <!--Staircase R2-->
    <path class="area-shape-public" d="M279,214v45l40,10v-55H279z"/>
  </g>


  <!-- amenityIDs -->
  <g id="map-amenityIDs">
    <!--Bathrooms-->
    <g data-amenity-id="bathrooms" class="">
      <!--Women's bathroom room-->
      <polygon class="area-shape-public" data-location-id="bathrooms-W2" points="47,60 47,112 111.5,112 111.5,155 111.5,161 175,161 175,60 "/>

      <!--Men's bathroom room-->
      <polygon class="area-shape-public" data-location-id="bathrooms-M1" points="275,60 275,160 325,160 325.4,160 325.4,106 404,106 404,60"/>
    </g>
  </g>


  <!-- Icons -->
  <g id="map-icons" class="">
    <!--Staircase (L)-->  
    <polygon class="glyph-staircase" points="71,152.6 71,157.1 66.5,157.1 66.5,161.5 62.1,161.5 62.1,166 57.6,166 57.6,171.6 71,171.6 
      76.6,171.6 76.6,166 76.6,152.6 	"/>
    <!--Staircase (R)-->  
    <polygon class="glyph-staircase" points="386.1,152.4 386.1,156.9 381.6,156.9 381.6,161.3 377.2,161.3 377.2,165.8 372.8,165.8 372.8,171.4 
      386.1,171.4 391.8,171.4 391.8,165.8 391.8,152.4 	"/>
    <!--Staircase (to balcony) (L)-->
    <polygon class="glyph-staircase" points="153.8,221.2 153.8,225.6 149.3,225.6 149.3,230.1 144.9,230.1 144.9,234.5 140.4,234.5 140.4,240.2 153.8,240.2 159.4,240.2 159.4,234.5 159.4,221.2"/>
    <!--Staircase (to balcony) (R)-->
    <polygon class="glyph-staircase" transform="translate(150, 0)" points="153.8,221.2 153.8,225.6 149.3,225.6 149.3,230.1 144.9,230.1 144.9,234.5 140.4,234.5 140.4,240.2 153.8,240.2 159.4,240.2 159.4,234.5 159.4,221.2"/>
      
      
    <!-- Label: Men's BR-->    
    <g class="icon">
      <!--Background-->
      <ellipse class="icon-bg" cx="300.9" cy="129.2" rx="14.1" ry="14.4"/>
      <!--Border-->
      <circle class="icon-border" cx="300.6" cy="129.1" r="14.2"/>
      <!--Icon shape-->
      <path d="M303.1,123.3H299c-1.1,0-2.1,0.9-2.1,2.1v6.2h2.1v7.3h4.2v-7.3h2.1v-6.2C305.2,124.2,304.3,123.3,303.1,123.3
        C303.2,123.3,303.2,123.3,303.1,123.3z"/>	
      <circle cx="301.1" cy="120.2" r="2.1"/>
    </g>

    <!-- Label: Women's BR-->
    <g class="icon">
      <!--Background--> 
      <ellipse class="icon-bg" cx="143.8" cy="129.2" rx="13.9" ry="14.4"/>
      <!--Border-->
      <circle class="icon-border" cx="143.7" cy="129.1" r="14.2"/>
      <!--Icon shape-->
      <path d="M146,124.5c-0.3-0.8-1.1-1.3-1.9-1.3c-0.9,0-1.7,0.5-2,1.3l-3.1,7.8h3v6h4v-6h3L146,124.5z"/>
      <circle cx="144.1" cy="120.2" r="2"/>  
    </g>
    

    <!-- Amenity: waterFountains -->
    <g data-amenity-id="waterFountains" class="">
      <g class="icon">
        <!--BG-->
        <ellipse data-location-id="waterFountains-C2" class="icon-bg water" cx="312.3" cy="179.4" rx="13.9" ry="14.4"/>
        <!--border-->
        <circle class="icon-border" cx="312.2" cy="179.3" r="14.2"/>
        <!--Icon-->        
        <path d="M304.6,170.5l1.8,16.2c0.1,0.9,0.9,1.6,1.8,1.6h8.9c0.9,0,1.7-0.7,1.8-1.6l1.8-16.2H304.6z M317.1,186.5h-8.9l-1-8.9H318 L317.1,186.5z M318.3,175.8H307l-0.4-3.6h12L318.3,175.8z M312.6,185.6c1.5,0,2.7-1.2,2.7-2.7c0,0,0,0,0,0c0-1.8-2.7-4.8-2.7-4.8 s-2.7,3-2.7,4.8C309.9,184.4,311.1,185.6,312.6,185.6C312.6,185.6,312.6,185.6,312.6,185.6L312.6,185.6z M312.6,181 c0.4,0.6,0.7,1.2,0.9,1.9c0,0.5-0.4,0.9-0.9,0.9c-0.5,0-0.9-0.4-0.9-0.9c0,0,0,0,0,0C311.9,182.2,312.2,181.6,312.6,181L312.6,181z"/>
      </g>            
    </g>


    <!-- Amenity: donations -->    
    <g data-amenity-id="donations" class="">
      <!-- CC -->
      <g class="icon icon-donations cc">        
        <ellipse class="icon-bg donations" cx="184.9" cy="190.2" rx="14" ry="14" data-location-id="donations-CC4"/>
        <circle class="icon-border" cx="184.9" cy="190" r="14.2"/>
        <path d="M192.6,182.5h-15.4c-1.1,0-1.9,0.9-1.9,1.9c0,0,0,0,0,0v11.6c0,1.1,0.8,1.9,1.9,1.9c0,0,0,0,0,0h15.4 c1.1,0,1.9-0.8,1.9-1.9c0,0,0,0,0,0v-11.6C194.5,183.3,193.7,182.5,192.6,182.5C192.6,182.5,192.6,182.5,192.6,182.5z M192.6,195.9 h-15.4v-5.8h15.4V195.9z M192.6,186.3h-15.4v-1.9h15.4V186.3z"/>
      </g>
      
      
      <!-- cash -->
      <g class="icon icon-donations cash" transform="translate(-161 -185)">        
        <ellipse class="icon-bg donations" cx="267.71" cy="393.85" rx="14" ry="14" data-location-id="donations-CA2"/>
        <circle class="icon-border" cx="267.76" cy="393.65" r="14.16"/>
        <path d="M268.23,392.52c-2.73-.71-3.61-1.44-3.61-2.58,0-1.32,1.21-2.23,3.25-2.23s2.93,1,3,2.53h2.66a4.81,4.81,0,0,0-3.87-4.59V383h-3.61v2.6c-2.33.51-4.21,2-4.21,4.35,0,2.78,2.3,4.16,5.66,5,3,.72,3.61,1.78,3.61,2.9,0,.83-.59,2.16-3.25,2.16-2.48,0-3.46-1.11-3.59-2.53h-2.65c.15,2.64,2.12,4.12,4.43,4.61v2.61h3.61v-2.59c2.35-.44,4.21-1.8,4.21-4.27C273.88,394.4,271,393.23,268.23,392.52Z"/>
      </g>
    </g>           
  </g>


  <!--  Walls and dividers -->
  <g id="Walls" class="map-floorplan">  
    <polyline points="275,160 275,60 275,159 281,159"/>
    <line x1="403.4" y1="229.5" x2="319.9" y2="229.5"/>
    <path d="M319.5,269.1c0-18.4,0.1-36.8,0.1-55.2h-39.9"/>
    <line x1="131.8" y1="229.4" x2="47.5" y2="229.4"/>
    <polyline points="47.5,177.5 86.5,177.5 86.5,160.5 111.5,160.5 	"/>
    <polyline points="47.5,111.5 111.5,111.5 111.5,160.5 124.5,160.5 	"/>
    <polyline points="140.5,160.5 175.5,160.5 175.5,60.1 	"/>
    <polyline points="403.5,105.5 325.5,105.5 325.5,159.9 297.4,159.9 	"/>
    <polyline points="325.5,159.5 363.7,159.9 363.7,176.7 403.4,176.6 	"/>
    <path d="M170,228.5V207h109v20.6"/>
    <path d="M169.5,213.5h-37.6v54.8"/>
  </g>


  <!--  All text content -->
  <g id="Text" class="">    
    <text class="text-label" x="210" y="280">
      Balcón
    </text>
  </g>
  
      
  <!-- Search results labels -->
  <g id="search-results">    
    <!-- BR Women's -->
    <text class="text-label search-result" transform="translate(182 110)" data-search-result-id="bathrooms-W2">
    </text>
    
    <!-- BR Men's -->
    <text class="text-label search-result" transform="translate(257 110)" data-search-result-id="bathrooms-M1">
    </text>
    
    <!-- Water fountain -->
    <text class="text-label search-result" transform="translate(280 180)" data-search-result-id="waterFountains-C2">
    </text>
    
    <!-- CC -->
    <text class="text-label search-result" transform="translate(158 180)" data-search-result-id="donations-CC4">
    </text>
    
    <!-- Cash -->
    <text class="text-label search-result" transform="translate(78 200)" data-search-result-id="donations-CA2">
    </text>      
  </g>
</svg>